<mxfile host="app.diagrams.net" agent="Mozilla/5.0 (X11; Linux x86_64) AppleWebKit/537.36 (KHTML, like Gecko) Chrome/135.0.0.0 Safari/537.36" version="27.1.0">
  <diagram name="Page-1" id="dV4gOR_IBtZmmg_PkJwF">
    <mxGraphModel dx="1426" dy="761" grid="1" gridSize="10" guides="1" tooltips="1" connect="1" arrows="1" fold="1" page="1" pageScale="1" pageWidth="827" pageHeight="1169" math="0" shadow="0">
      <root>
        <mxCell id="0" />
        <mxCell id="1" parent="0" />
        <mxCell id="SCQOQ3xM6eZPDDU1Whtt-97" value="" style="rounded=0;whiteSpace=wrap;html=1;" parent="1" vertex="1">
          <mxGeometry x="336" y="420" width="313" height="50" as="geometry" />
        </mxCell>
        <mxCell id="SCQOQ3xM6eZPDDU1Whtt-69" value="Bloque de productos" style="rounded=1;whiteSpace=wrap;html=1;fillColor=#d5e8d4;strokeColor=#82b366;" parent="1" vertex="1">
          <mxGeometry x="600" y="120" width="360" height="40" as="geometry" />
        </mxCell>
        <mxCell id="SCQOQ3xM6eZPDDU1Whtt-70" value="\project\products\serializers.py" style="rounded=0;whiteSpace=wrap;html=1;fillColor=#fff2cc;strokeColor=#d6b656;" parent="1" vertex="1">
          <mxGeometry x="600" y="170" width="360" height="30" as="geometry" />
        </mxCell>
        <mxCell id="SCQOQ3xM6eZPDDU1Whtt-71" value="ProductAttributeSerializer" style="rounded=0;whiteSpace=wrap;html=1;fillColor=#f8cecc;strokeColor=#b85450;" parent="1" vertex="1">
          <mxGeometry x="600" y="293" width="147" height="30" as="geometry" />
        </mxCell>
        <mxCell id="SCQOQ3xM6eZPDDU1Whtt-77" value="Bloque de canales" style="rounded=1;whiteSpace=wrap;html=1;fillColor=#d5e8d4;strokeColor=#82b366;" parent="1" vertex="1">
          <mxGeometry x="30" y="120" width="210" height="40" as="geometry" />
        </mxCell>
        <mxCell id="SCQOQ3xM6eZPDDU1Whtt-78" value="\project\marketplaces\serializers.py" style="rounded=0;whiteSpace=wrap;html=1;fillColor=#fff2cc;strokeColor=#d6b656;" parent="1" vertex="1">
          <mxGeometry x="30" y="170" width="210" height="30" as="geometry" />
        </mxCell>
        <mxCell id="SCQOQ3xM6eZPDDU1Whtt-79" value="MarketplaceSerializer" style="rounded=0;whiteSpace=wrap;html=1;fillColor=#f8cecc;strokeColor=#b85450;" parent="1" vertex="1">
          <mxGeometry x="30" y="215" width="210" height="30" as="geometry" />
        </mxCell>
        <mxCell id="SCQOQ3xM6eZPDDU1Whtt-85" value="Bloque de pedidos" style="rounded=1;whiteSpace=wrap;html=1;fillColor=#d5e8d4;strokeColor=#82b366;" parent="1" vertex="1">
          <mxGeometry x="260" y="120" width="320" height="40" as="geometry" />
        </mxCell>
        <mxCell id="SCQOQ3xM6eZPDDU1Whtt-86" value="\project\orders\serializers.py" style="rounded=0;whiteSpace=wrap;html=1;fillColor=#fff2cc;strokeColor=#d6b656;" parent="1" vertex="1">
          <mxGeometry x="260" y="170" width="320" height="30" as="geometry" />
        </mxCell>
        <mxCell id="SCQOQ3xM6eZPDDU1Whtt-87" value="CustomerSerializer" style="rounded=0;whiteSpace=wrap;html=1;fillColor=#f8cecc;strokeColor=#b85450;" parent="1" vertex="1">
          <mxGeometry x="405" y="255" width="175" height="30" as="geometry" />
        </mxCell>
        <mxCell id="SCQOQ3xM6eZPDDU1Whtt-91" value="" style="rounded=1;whiteSpace=wrap;html=1;fillColor=#d5e8d4;strokeColor=#82b366;" parent="1" vertex="1">
          <mxGeometry x="346" y="430" width="30" height="30" as="geometry" />
        </mxCell>
        <mxCell id="SCQOQ3xM6eZPDDU1Whtt-92" value="Bloque de&lt;div&gt;&lt;span style=&quot;background-color: transparent; color: light-dark(rgb(0, 0, 0), rgb(255, 255, 255));&quot;&gt;funcionalidad&lt;/span&gt;&lt;/div&gt;" style="text;html=1;align=left;verticalAlign=middle;whiteSpace=wrap;rounded=0;fontStyle=1" parent="1" vertex="1">
          <mxGeometry x="381" y="430" width="96" height="30" as="geometry" />
        </mxCell>
        <mxCell id="SCQOQ3xM6eZPDDU1Whtt-93" value="" style="rounded=0;whiteSpace=wrap;html=1;fillColor=#f8cecc;strokeColor=#b85450;" parent="1" vertex="1">
          <mxGeometry x="557" y="430" width="30" height="30" as="geometry" />
        </mxCell>
        <mxCell id="SCQOQ3xM6eZPDDU1Whtt-94" value="Serializer" style="text;html=1;align=left;verticalAlign=middle;whiteSpace=wrap;rounded=0;fontStyle=1" parent="1" vertex="1">
          <mxGeometry x="592" y="430" width="45" height="30" as="geometry" />
        </mxCell>
        <mxCell id="SCQOQ3xM6eZPDDU1Whtt-95" value="" style="rounded=0;whiteSpace=wrap;html=1;fillColor=#fff2cc;strokeColor=#d6b656;" parent="1" vertex="1">
          <mxGeometry x="471" y="430" width="30" height="30" as="geometry" />
        </mxCell>
        <mxCell id="SCQOQ3xM6eZPDDU1Whtt-96" value="Fichero" style="text;html=1;align=left;verticalAlign=middle;whiteSpace=wrap;rounded=0;fontStyle=1" parent="1" vertex="1">
          <mxGeometry x="506" y="430" width="61" height="30" as="geometry" />
        </mxCell>
        <mxCell id="qTxGkBUJVbdwnP7Ffih2-1" value="CustomerNameSerializer" style="rounded=0;whiteSpace=wrap;html=1;fillColor=#f8cecc;strokeColor=#b85450;" vertex="1" parent="1">
          <mxGeometry x="260" y="293" width="134" height="30" as="geometry" />
        </mxCell>
        <mxCell id="qTxGkBUJVbdwnP7Ffih2-2" value="OrderItemSerializer" style="rounded=0;whiteSpace=wrap;html=1;fillColor=#f8cecc;strokeColor=#b85450;" vertex="1" parent="1">
          <mxGeometry x="405" y="293" width="175" height="30" as="geometry" />
        </mxCell>
        <mxCell id="qTxGkBUJVbdwnP7Ffih2-3" value="OrderItemCreateSerializer" style="rounded=0;whiteSpace=wrap;html=1;fillColor=#f8cecc;strokeColor=#b85450;" vertex="1" parent="1">
          <mxGeometry x="260" y="330" width="134" height="30" as="geometry" />
        </mxCell>
        <mxCell id="qTxGkBUJVbdwnP7Ffih2-4" value="OrderItemOrderCreationSerializer" style="rounded=0;whiteSpace=wrap;html=1;fillColor=#f8cecc;strokeColor=#b85450;" vertex="1" parent="1">
          <mxGeometry x="405" y="330" width="175" height="30" as="geometry" />
        </mxCell>
        <mxCell id="qTxGkBUJVbdwnP7Ffih2-5" value="Order&lt;span style=&quot;background-color: transparent; color: light-dark(rgb(0, 0, 0), rgb(255, 255, 255));&quot;&gt;Serializer&lt;/span&gt;" style="rounded=0;whiteSpace=wrap;html=1;fillColor=#f8cecc;strokeColor=#b85450;" vertex="1" parent="1">
          <mxGeometry x="260" y="215" width="134" height="30" as="geometry" />
        </mxCell>
        <mxCell id="qTxGkBUJVbdwnP7Ffih2-6" value="OrderCreationSerializer" style="rounded=0;whiteSpace=wrap;html=1;fillColor=#f8cecc;strokeColor=#b85450;" vertex="1" parent="1">
          <mxGeometry x="260" y="255" width="134" height="30" as="geometry" />
        </mxCell>
        <mxCell id="qTxGkBUJVbdwnP7Ffih2-7" value="OrderPaginationSerializer" style="rounded=0;whiteSpace=wrap;html=1;fillColor=#f8cecc;strokeColor=#b85450;" vertex="1" parent="1">
          <mxGeometry x="405" y="215" width="175" height="30" as="geometry" />
        </mxCell>
        <mxCell id="qTxGkBUJVbdwnP7Ffih2-8" value="ProductAttributeUpdateSerializer" style="rounded=0;whiteSpace=wrap;html=1;fillColor=#f8cecc;strokeColor=#b85450;" vertex="1" parent="1">
          <mxGeometry x="760" y="330" width="200" height="30" as="geometry" />
        </mxCell>
        <mxCell id="qTxGkBUJVbdwnP7Ffih2-9" value="ProductSerializer" style="rounded=0;whiteSpace=wrap;html=1;fillColor=#f8cecc;strokeColor=#b85450;" vertex="1" parent="1">
          <mxGeometry x="600" y="330" width="147" height="30" as="geometry" />
        </mxCell>
        <mxCell id="qTxGkBUJVbdwnP7Ffih2-10" value="ProductPaginationSerializer" style="rounded=0;whiteSpace=wrap;html=1;fillColor=#f8cecc;strokeColor=#b85450;" vertex="1" parent="1">
          <mxGeometry x="600" y="370" width="147" height="30" as="geometry" />
        </mxCell>
        <mxCell id="qTxGkBUJVbdwnP7Ffih2-11" value="ProductDetailSerializer" style="rounded=0;whiteSpace=wrap;html=1;fillColor=#f8cecc;strokeColor=#b85450;" vertex="1" parent="1">
          <mxGeometry x="600" y="215" width="147" height="30" as="geometry" />
        </mxCell>
        <mxCell id="qTxGkBUJVbdwnP7Ffih2-12" value="ProductSummarySerializer" style="rounded=0;whiteSpace=wrap;html=1;fillColor=#f8cecc;strokeColor=#b85450;" vertex="1" parent="1">
          <mxGeometry x="600" y="255" width="147" height="30" as="geometry" />
        </mxCell>
        <mxCell id="qTxGkBUJVbdwnP7Ffih2-13" value="MarketplaceProductAttributeSerializer" style="rounded=0;whiteSpace=wrap;html=1;fillColor=#f8cecc;strokeColor=#b85450;" vertex="1" parent="1">
          <mxGeometry x="760" y="215" width="200" height="30" as="geometry" />
        </mxCell>
        <mxCell id="qTxGkBUJVbdwnP7Ffih2-14" value="MarketplaceProductDetailSerializer" style="rounded=0;whiteSpace=wrap;html=1;fillColor=#f8cecc;strokeColor=#b85450;" vertex="1" parent="1">
          <mxGeometry x="760" y="293" width="200" height="30" as="geometry" />
        </mxCell>
        <mxCell id="qTxGkBUJVbdwnP7Ffih2-15" value="MarketplaceProductSummarySerializer" style="rounded=0;whiteSpace=wrap;html=1;fillColor=#f8cecc;strokeColor=#b85450;" vertex="1" parent="1">
          <mxGeometry x="760" y="255" width="200" height="30" as="geometry" />
        </mxCell>
      </root>
    </mxGraphModel>
  </diagram>
</mxfile>
